<?xml version="1.0" encoding="UTF-8"?>
<!DOCTYPE svg PUBLIC "-//W3C//DTD SVG 1.1//EN" "http://www.w3.org/Graphics/SVG/1.1/DTD/svg11.dtd">
<!-- Creator: CorelDRAW 2020 (64-Bit) -->
<svg xmlns="http://www.w3.org/2000/svg" xml:space="preserve" width="29mm" height="25mm" version="1.1" style="shape-rendering:geometricPrecision; text-rendering:geometricPrecision; image-rendering:optimizeQuality; fill-rule:evenodd; clip-rule:evenodd"
viewBox="0 0 2900 2500"
 xmlns:xlink="http://www.w3.org/1999/xlink"
 xmlns:xodm="http://www.corel.com/coreldraw/odm/2003">
 <defs>
  <style type="text/css">
   <![CDATA[
    .fil1 {fill:#006CB5}
    .fil0 {fill:#006CB5;fill-rule:nonzero}
   ]]>
  </style>
 </defs>
 <g id="Слой_x0020_1">
  <metadata id="CorelCorpID_0Corel-Layer"/>
  <g id="_1727341845312">
   <g>
    <path class="fil0" d="M232.55 187.51c-21.22,-50.98 2.91,-109.53 53.89,-130.75 50.98,-21.22 109.53,2.91 130.75,53.89l-184.64 76.86zm790.85 1899.98l-790.85 -1899.98 184.64 -76.86 790.85 1899.98 -184.64 76.86zm184.64 -76.86c21.22,50.98 -2.91,109.53 -53.89,130.75 -50.98,21.22 -109.53,-2.91 -130.75,-53.89l184.64 -76.86z"/>
   </g>
   <g>
    <path class="fil0" d="M1115.72 2149.06c-55.22,0 -100,-44.78 -100,-100 0,-55.22 44.78,-100 100,-100l0 200zm1174.72 0l-1174.72 0 0 -200 1174.72 0 0 200zm0 -200c55.22,0 100,44.78 100,100 0,55.22 -44.78,100 -100,100l0 -200z"/>
   </g>
   <g>
    <path class="fil0" d="M447.03 542.54c-55.22,0 -100,-44.78 -100,-100 0,-55.22 44.78,-100 100,-100l0 200zm2334.33 0l-2334.33 0 0 -200 2334.33 0 0 200zm0 -200c55.22,0 100,44.78 100,100 0,55.22 -44.78,100 -100,100l0 -200z"/>
   </g>
   <g>
    <path class="fil0" d="M324.87 49.08c55.22,0 100,44.78 100,100 0,55.22 -44.78,100 -100,100l0 -200zm-219.42 0l219.42 0 0 200 -219.42 0 0 -200zm0 200c-55.22,0 -100,-44.78 -100,-100 0,-55.22 44.78,-100 100,-100l0 200z"/>
   </g>
   <g>
    <path class="fil0" d="M933.11 1710.32c-55.22,0 -100,-44.78 -100,-100 0,-55.22 44.78,-100 100,-100l0 200zm1491.4 0l-1491.4 0 0 -200 1491.4 0 0 200zm0 -200c55.22,0 100,44.78 100,100 0,55.22 -44.78,100 -100,100l0 -200z"/>
   </g>
   <g>
    <path class="fil0" d="M2520.14 1639.54c-16.13,52.81 -72.04,82.54 -124.85,66.41 -52.81,-16.13 -82.54,-72.04 -66.41,-124.85l191.26 58.44zm356.85 -1167.78l-356.85 1167.78 -191.26 -58.44 356.85 -1167.78 191.26 58.44zm-191.26 -58.44c16.13,-52.81 72.04,-82.54 124.85,-66.41 52.81,16.13 82.54,72.04 66.41,124.85l-191.26 -58.44z"/>
   </g>
   <g>
    <path class="fil1" d="M1399.39 2142.91c90.25,0 163.42,73.17 163.42,163.43 0,90.26 -73.17,163.43 -163.42,163.43 -90.26,0 -163.43,-73.17 -163.43,-163.43 0,-90.26 73.17,-163.43 163.43,-163.43zm0 164.06l0 -0.63 -0.64 0 0 0.01 0.63 0.63 0 0 -0.63 -0.64 0.63 -0.64 0.01 0.01 0 -0.01 0 0 -0.01 0 0.01 1.27zm0 -0.63l0 -0.63 0.63 0.63 -0.63 0zm-0.01 0.64l0.01 -0.01 0.63 -0.63 0 -0.01 -0.63 -0.63 -0.01 1.28z"/>
   </g>
   <g>
    <path class="fil1" d="M1990.34 2142.91c90.26,0 163.43,73.17 163.43,163.43 0,90.26 -73.17,163.43 -163.43,163.43 -90.25,0 -163.43,-73.17 -163.43,-163.43 0,-90.26 73.18,-163.43 163.43,-163.43zm0 164.07l0 -0.64 -0.64 0 0 0 0.32 0.32 0.32 -0.32 0 0.64 0 0 0.32 -0.32 -0.32 -0.32 -0.32 -0.32 -0.32 0.32 0.32 0.32 0.32 0.32z"/>
   </g>
  </g>
 </g>
</svg>
