<?xml version="1.0" encoding="UTF-8"?>
<!DOCTYPE svg PUBLIC "-//W3C//DTD SVG 1.1//EN" "http://www.w3.org/Graphics/SVG/1.1/DTD/svg11.dtd">
<!-- Creator: CorelDRAW 2020 (64-Bit) -->
<svg xmlns="http://www.w3.org/2000/svg" xml:space="preserve" width="21mm" height="27mm" version="1.1" style="shape-rendering:geometricPrecision; text-rendering:geometricPrecision; image-rendering:optimizeQuality; fill-rule:evenodd; clip-rule:evenodd"
viewBox="0 0 2100 2700"
 xmlns:xlink="http://www.w3.org/1999/xlink"
 xmlns:xodm="http://www.corel.com/coreldraw/odm/2003">
 <defs>
  <style type="text/css">
   <![CDATA[
    .fil0 {fill:#006CB5;fill-rule:nonzero}
   ]]>
  </style>
 </defs>
 <g id="Слой_x0020_1">
  <metadata id="CorelCorpID_0Corel-Layer"/>
  <g id="_1727306430336">
   <g>
    <path class="fil0" d="M642.87 149.84c0,-55.22 44.78,-100 100,-100 55.22,0 100,44.78 100,100l-200 0zm0 2422.1l0 -2422.1 200 0 0 2422.1 -200 0zm200 0c0,55.22 -44.78,100 -100,100 -55.22,0 -100,-44.78 -100,-100l200 0z"/>
   </g>
   <g>
    <path class="fil0" d="M37.34 1909.91c0,-55.22 44.78,-100 100,-100 55.22,0 100,44.78 100,100l-200 0zm0 662.03l0 -662.03 200 0 0 662.03 -200 0zm200 0c0,55.22 -44.78,100 -100,100 -55.22,0 -100,-44.78 -100,-100l200 0z"/>
   </g>
   <g>
    <path class="fil0" d="M1248.39 1360.89c0,-55.22 44.78,-100 100,-100 55.22,0 100,44.78 100,100l-200 0zm0 1211.05l0 -1211.05 200 0 0 1211.05 -200 0zm200 0c0,55.22 -44.78,100 -100,100 -55.22,0 -100,-44.78 -100,-100l200 0z"/>
   </g>
   <g>
    <path class="fil0" d="M1853.91 785.43c0,-55.22 44.78,-100 100,-100 55.22,0 100,44.78 100,100l-200 0zm0 1786.51l0 -1786.51 200 0 0 1786.51 -200 0zm200 0c0,55.22 -44.78,100 -100,100 -55.22,0 -100,-44.78 -100,-100l200 0z"/>
   </g>
  </g>
 </g>
</svg>
