<?xml version="1.0" encoding="UTF-8"?>
<!DOCTYPE svg PUBLIC "-//W3C//DTD SVG 1.1//EN" "http://www.w3.org/Graphics/SVG/1.1/DTD/svg11.dtd">
<!-- Creator: CorelDRAW 2020 (64-Bit) -->
<svg xmlns="http://www.w3.org/2000/svg" xml:space="preserve" width="1.6mm" height="0.9mm" version="1.1" style="shape-rendering:geometricPrecision; text-rendering:geometricPrecision; image-rendering:optimizeQuality; fill-rule:evenodd; clip-rule:evenodd"
viewBox="0 0 160 90"
 xmlns:xlink="http://www.w3.org/1999/xlink"
 xmlns:xodm="http://www.corel.com/coreldraw/odm/2003">
 <defs>
  <style type="text/css">
   <![CDATA[
    .fil0 {fill:#2B2A29;fill-rule:nonzero}
   ]]>
  </style>
 </defs>
 <g id="Слой_x0020_1">
  <metadata id="CorelCorpID_0Corel-Layer"/>
  <g id="_1727341832784">
   <g>
    <path class="fil0" d="M1.89 30.96c-5.08,-4.67 -5.41,-12.58 -0.74,-17.66 4.67,-5.08 12.58,-5.41 17.66,-0.74l-16.92 18.4zm66.1 60.76l-66.1 -60.76 16.92 -18.4 66.1 60.76 -16.92 18.4zm16.92 -18.4c5.08,4.67 5.41,12.58 0.74,17.66 -4.67,5.08 -12.58,5.41 -17.66,0.74l16.92 -18.4z"/>
   </g>
   <g>
    <path class="fil0" d="M133.66 12.56c5.08,-4.67 12.99,-4.34 17.66,0.74 4.67,5.08 4.34,12.99 -0.74,17.66l-16.92 -18.4zm-66.1 60.76l66.1 -60.76 16.92 18.4 -66.1 60.76 -16.92 -18.4zm16.92 18.4c-5.08,4.67 -12.99,4.34 -17.66,-0.74 -4.67,-5.08 -4.34,-12.99 0.74,-17.66l16.92 18.4z"/>
   </g>
  </g>
 </g>
</svg>
