<?xml version="1.0" encoding="UTF-8"?>
<!DOCTYPE svg PUBLIC "-//W3C//DTD SVG 1.1//EN" "http://www.w3.org/Graphics/SVG/1.1/DTD/svg11.dtd">
<!-- Creator: CorelDRAW 2020 (64-Bit) -->
<svg xmlns="http://www.w3.org/2000/svg" xml:space="preserve" width="139mm" height="27mm" version="1.1" style="shape-rendering:geometricPrecision; text-rendering:geometricPrecision; image-rendering:optimizeQuality; fill-rule:evenodd; clip-rule:evenodd"
viewBox="0 0 13900 2700"
 xmlns:xlink="http://www.w3.org/1999/xlink"
 xmlns:xodm="http://www.corel.com/coreldraw/odm/2003">
 <defs>
  <style type="text/css">
   <![CDATA[
    .fil2 {fill:#EE741D}
    .fil1 {fill:#006CB5}
    .fil0 {fill:#006CB5;fill-rule:nonzero}
   ]]>
  </style>
 </defs>
 <g id="Слой_x0020_1">
  <metadata id="CorelCorpID_0Corel-Layer"/>
  <g id="_1727307568768">
   <path class="fil0" d="M5371.03 1671.46l-156.9 0 191.32 -602.46c-29.43,20.22 -56.04,42.53 -79.83,66.94 -49.64,50.9 -98.12,137.71 -145.46,260.44 -15.63,40.44 -46.14,132.13 -91.54,275.08l-156.89 0 38.53 -121.33c36.09,-113.66 70.56,-204.66 103.42,-272.99 51.54,-107.38 111.12,-190.71 178.75,-249.98 39.44,-34.17 84.52,-64.15 135.25,-89.95l216.51 0 -233.16 734.25zm572.35 -195.59c-24.35,76.7 -56.11,130.04 -95.27,160.03 -39.15,29.98 -96.74,44.97 -172.74,44.97 -76.7,0 -125.11,-14.99 -145.22,-44.97 -20.12,-29.99 -17.99,-83.33 6.36,-160.03l78.72 -247.89c24.14,-76.01 56.01,-129.18 95.62,-159.51 39.62,-30.33 97.43,-45.5 173.44,-45.5 76,0 124.06,15 144.18,44.98 20.11,29.98 17.99,83.33 -6.37,160.03l-45.84 144.34 -261.48 0 -39.86 125.51c-7.53,23.71 -9.29,40.79 -5.29,51.25 4,10.46 18.2,15.69 42.61,15.69 23.01,0 40.58,-5.93 52.71,-17.78 9.85,-9.06 18.54,-25.45 26.07,-49.16l19.26 -60.66 145.39 0 -12.29 38.7zm-76.63 -216.52l15.61 -49.15c7.75,-24.41 10.04,-41.49 6.86,-51.25 -4.16,-13.25 -18.09,-19.88 -41.8,-19.88 -24.41,0 -42.9,6.63 -55.47,19.88 -9.16,9.06 -17.72,26.14 -25.69,51.25l-15.61 49.15 116.1 0zm519.71 412.11l-144.34 0 92.67 -291.82 -116.1 0 -92.67 291.82 -144.34 0 203.27 -640.12 144.34 0 -71.74 225.92 116.1 0 71.74 -225.92 144.34 0 -203.27 640.12zm552.26 0l-156.89 0 191.31 -602.46 -122.37 0 -191.32 602.46 -156.89 0 233.16 -734.25 436.16 0 -233.16 734.25zm585.6 -207.1c-23.7,74.61 -45.21,124.82 -64.56,150.62 -32.78,43.92 -80.9,65.89 -144.35,65.89 -25.8,0 -46.47,-6.28 -62.01,-18.83 -10.37,-9.06 -22.25,-25.45 -35.64,-49.15l-48.5 152.7 -145.38 0 233.16 -734.25 134.93 0 -19.6 61.71c34.47,-25.1 60.47,-42.18 77.99,-51.25 26.3,-12.55 54.09,-18.83 83.38,-18.83 53.69,0 83.66,20.92 89.89,62.76 4.87,28.59 -2.33,73.22 -21.59,133.88l-77.72 244.75zm-159.16 33.47l92.67 -291.82c7.31,-23.01 9.27,-39.05 5.87,-48.11 -3.69,-12.55 -17.04,-18.83 -40.05,-18.83 -23.01,0 -39.6,5.06 -49.79,15.17 -10.18,10.11 -19.15,27.37 -26.9,51.77l-92.67 291.82c-7.75,24.41 -9.92,41.14 -6.52,50.21 4.12,11.15 17.69,16.73 40.7,16.73 23.01,0 40.58,-5.93 52.72,-17.78 8.45,-9.06 16.45,-25.45 23.97,-49.16zm648.14 -21.96c-24.13,76 -55.84,129.17 -95.1,159.5 -39.27,30.33 -96.91,45.5 -172.91,45.5 -76.7,0 -125.11,-14.99 -145.23,-44.97 -20.11,-29.99 -17.99,-83.33 6.37,-160.03l78.72 -247.89c24.13,-76.01 56.01,-129.18 95.62,-159.51 39.62,-30.33 97.43,-45.5 173.44,-45.5 76,0 124.01,15.17 144.01,45.5 20,30.33 17.93,83.5 -6.2,159.51l-78.72 247.89zm-152.46 15.68l88.68 -279.26c7.31,-23.01 9.26,-39.05 5.87,-48.12 -4.38,-12.55 -17.73,-18.82 -40.04,-18.82 -23.02,0 -40.59,5.93 -52.72,17.78 -9.15,9.06 -17.49,25.45 -25.02,49.16l-88.68 279.26c-7.53,23.71 -9.6,40.1 -6.2,49.17 3.91,11.85 17.71,17.78 41.42,17.78 23.01,0 40.58,-5.93 52.71,-17.78 8.46,-9.07 16.45,-25.46 23.98,-49.17zm813.1 179.91l-138.07 0 166.74 -525.07c-57.85,46.03 -104.53,99.72 -140.06,161.08 -27.38,46.72 -53.26,108.43 -77.62,185.13l-56.79 178.86 -131.79 0 56.8 -178.86c24.36,-76.7 37.68,-138.41 39.96,-185.13 3.45,-61.36 -9.14,-115.05 -37.76,-161.08l-166.73 525.07 -138.06 0 203.26 -640.12 178.86 0c44.79,54.39 70.8,111.92 78.03,172.58 46.21,-62.06 108.4,-119.58 186.6,-172.58l179.89 0 -203.26 640.12zm536.56 0l-156.89 0 44.84 -141.21 -125.51 0 -44.84 141.21 -156.89 0 44.84 -141.21c85.52,-269.32 197.46,-467.01 335.8,-593.04l143.3 0c57.22,131.61 43.95,329.3 -39.81,593.04l-44.84 141.21zm-73.19 -263.58c38.97,-122.72 55.92,-241.96 50.84,-357.71 -78.6,115.75 -137.38,234.99 -176.35,357.71l125.51 0zm627.05 77.4c-21.49,67.64 -51.53,115.58 -90.13,143.82 -38.6,28.24 -92.07,42.36 -160.4,42.36l-206.05 0 203.26 -640.12 199.78 0c68.33,0 111.83,9.07 130.48,27.19 22.19,22.32 22.89,66.25 2.07,131.8 -17.49,55.08 -52.39,96.92 -104.7,125.51 23.82,21.61 37.33,46.02 40.55,73.21 2.93,23.71 -2.02,55.79 -14.86,96.23zm-63.03 -282.41c11.51,-36.25 0.18,-54.38 -33.99,-54.38l-55.43 0 -38.53 121.33 30.33 0c50.91,0 83.44,-22.32 97.62,-66.95zm-77.99 271.95c20.81,-65.55 7.86,-98.32 -38.86,-98.32l-44.98 0 -55.46 174.67 35.56 0c30.68,0 53.2,-5.05 67.57,-15.16 14.37,-10.11 26.42,-30.51 36.17,-61.19zm635.39 -321.1l-103.55 0 -164.41 517.74 -144.34 0 164.41 -517.74 -103.54 0 38.85 -122.38 351.44 0 -38.86 122.38zm356.87 322.15c-24.14,76 -55.84,129.17 -95.1,159.5 -39.27,30.33 -96.91,45.5 -172.91,45.5 -76.71,0 -125.11,-14.99 -145.23,-44.97 -20.11,-29.99 -17.99,-83.33 6.36,-160.03l78.72 -247.89c24.14,-76.01 56.02,-129.18 95.63,-159.51 39.61,-30.33 97.43,-45.5 173.43,-45.5 76.01,0 124.01,15.17 144.02,45.5 20,30.33 17.93,83.5 -6.21,159.51l-78.71 247.89zm-152.46 15.68l88.68 -279.26c7.31,-23.01 9.26,-39.05 5.87,-48.12 -4.38,-12.55 -17.73,-18.82 -40.05,-18.82 -23.01,0 -40.58,5.93 -52.71,17.78 -9.16,9.06 -17.5,25.45 -25.02,49.16l-88.69 279.26c-7.53,23.71 -9.59,40.1 -6.19,49.17 3.9,11.85 17.71,17.78 41.42,17.78 23.01,0 40.58,-5.93 52.71,-17.78 8.46,-9.07 16.45,-25.46 23.98,-49.17zm813.09 179.91l-138.06 0 166.74 -525.07c-57.85,46.03 -104.54,99.72 -140.06,161.08 -27.39,46.72 -53.26,108.43 -77.62,185.13l-56.79 178.86 -131.79 0 56.79 -178.86c24.36,-76.7 37.68,-138.41 39.96,-185.13 3.45,-61.36 -9.13,-115.05 -37.75,-161.08l-166.73 525.07 -138.07 0 203.27 -640.12 178.86 0c44.79,54.39 70.8,111.92 78.03,172.58 46.21,-62.06 108.4,-119.58 186.59,-172.58l179.9 0 -203.27 640.12zm495.96 0l-135.98 0 19.6 -61.71c-64.79,48.11 -114.96,72.17 -150.52,72.17 -89.96,0 -119.1,-49.86 -87.44,-149.57l30.23 -95.18c10.85,-34.17 24.24,-62.06 40.17,-83.68 27.77,-36.96 78.53,-68.33 152.27,-94.14 28.9,-9.76 72.49,-24.05 130.76,-42.88l5.31 -16.73c7.09,-22.31 8.41,-38 3.97,-47.07 -4.45,-9.07 -17.82,-13.6 -40.14,-13.6 -26.5,0 -45.89,8.37 -58.18,25.1 -6.14,8.38 -14.3,28.59 -24.49,60.67l-127.6 0 13.28 -41.84c18.83,-59.27 49.3,-101.45 91.44,-126.56 37.07,-22.31 86.29,-33.47 147.65,-33.47 67.64,0 112.59,13.25 134.86,39.75 22.99,28.59 23.86,76.35 2.61,143.29l-147.8 465.45zm-90.26 -173.63l55.13 -173.62c-38.78,16.73 -66.45,30.33 -83.02,40.79 -29.22,19.52 -49.66,42.18 -61.34,67.98 -3.13,7.67 -6.25,16.39 -9.35,26.15l-12.29 38.7c-7.52,23.71 -9.94,40.1 -7.24,49.16 4.6,11.85 18.41,17.78 41.42,17.78 23.01,0 40.12,-5.58 51.34,-16.73 8.93,-8.37 17.38,-25.11 25.35,-50.21zm665.54 -344.11l-103.54 0 -164.42 517.74 -144.34 0 164.42 -517.74 -103.55 0 38.85 -122.38 351.44 0 -38.86 122.38zm296.85 517.74l-144.34 0 64.1 -201.87c-65.04,90.65 -130.34,157.94 -195.89,201.87l-131.78 0 203.26 -640.12 144.34 0 -141.49 445.57c73.89,-46.02 139.88,-135.27 197.99,-267.76 16.14,-37.65 37.06,-96.92 62.74,-177.81l144.34 0 -203.27 640.12zm695.21 -618.15c-30.78,96.92 -93.83,181.29 -189.15,253.11 30.48,46.72 43.12,103.55 37.9,170.49 -3.68,46.72 -18.69,111.57 -45.04,194.55l-145.39 0c21.26,-66.94 34.98,-117.84 41.17,-152.71 9.53,-58.57 7.16,-105.99 -7.12,-142.25 -19.37,10.46 -39.89,20.22 -61.6,29.29l-84.37 265.67 -144.33 0 203.26 -640.12 144.34 0 -86.35 271.95c92.77,-57.18 158.85,-147.83 198.27,-271.95l145.38 0c-0.66,2.09 -1.88,5.93 -3.65,11.51 -1.33,4.18 -2.44,7.67 -3.32,10.46zm288.15 618.15l-135.97 0 19.6 -61.71c-64.79,48.11 -114.97,72.17 -150.53,72.17 -89.95,0 -119.09,-49.86 -87.43,-149.57l30.23 -95.18c10.85,-34.17 24.24,-62.06 40.17,-83.68 27.77,-36.96 78.52,-68.33 152.26,-94.14 28.9,-9.76 72.49,-24.05 130.76,-42.88l5.32 -16.73c7.08,-22.31 8.41,-38 3.97,-47.07 -4.45,-9.07 -17.83,-13.6 -40.14,-13.6 -26.5,0 -45.89,8.37 -58.18,25.1 -6.15,8.38 -14.3,28.59 -24.49,60.67l-127.6 0 13.28 -41.84c18.82,-59.27 49.3,-101.45 91.44,-126.56 37.07,-22.31 86.29,-33.47 147.65,-33.47 67.63,0 112.59,13.25 134.85,39.75 23,28.59 23.87,76.35 2.61,143.29l-147.8 465.45zm-90.25 -173.63l55.13 -173.62c-38.78,16.73 -66.46,30.33 -83.03,40.79 -29.21,19.52 -49.65,42.18 -61.33,67.98 -3.13,7.67 -6.25,16.39 -9.35,26.15l-12.29 38.7c-7.53,23.71 -9.94,40.1 -7.24,49.16 4.6,11.85 18.41,17.78 41.42,17.78 23.01,0 40.12,-5.58 51.33,-16.73 8.94,-8.37 17.39,-25.11 25.36,-50.21z"/>
   <g>
    <path class="fil1" d="M3199.51 1159.6l-18.81 57.94 -0.01 0 -232.66 721.11 -585.3 0 -241.05 0 -36.77 0 -61.81 190.49 -140.47 -134.23 -58.88 -56.26 -113.58 0 -368.72 0 -494.52 0 229.28 -710.64 22.21 -68.41 -245.83 0 -90.16 0c57.81,-64.63 85.9,-118.14 168.83,-173.58l118.8 0 679.48 0 120.14 0 129.8 0 55.31 0 93.99 -289.62 216.95 179.68 132.75 109.94 127.04 0 145.49 0 748.06 0 390.23 0c21.15,56.49 0.27,114.65 -3.54,173.58l-584.16 0 -102.09 0zm-1021.5 605.49l241.05 0 411.4 0 173.54 -537.9 21.93 -67.59 -331.25 0 -145.49 0 -127.04 0 -204.1 109.93 -333.58 179.68 93.99 -289.61 -55.3 0 -129.8 0 -120.15 0 -401.2 0 -18.02 55.54 -0.07 0.03 -177.42 549.92 321.28 0 370.32 0 111.98 0 95.39 -56.26 227.59 -134.22 -61.82 190.48 36.77 0z"/>
    <path class="fil1" d="M1786.89 2534.16c-760.01,102.15 -1404.04,-50.33 -1538.04,-527.08 -145.82,-518.85 571.18,-1319.49 1630.69,-1682.85 157.41,-53.98 313.22,-96.24 464.99,-127.33l11.23 -63.7 -11.34 64.37c73.35,-13.83 131.77,-23.27 203.52,-32.01l24.25 -70.53c-71.3,10.75 -143.53,23.48 -216.43,38.17 -175.56,37.96 -355.96,89.38 -537.89,154.78 -1146.21,412.03 -1895.62,1292.7 -1726.04,1807.26 169.58,514.56 847.31,634.89 1669.31,508.12l25.75 -69.2z"/>
    <path class="fil2" d="M1979.39 2564.93c175.58,-37.96 355.97,-89.38 537.9,-154.78 1146.21,-412.04 1902.24,-1272.65 1726.04,-1807.27 -158.5,-480.92 -825.32,-624.56 -1617.95,-515.49l-23.15 70.35c732.93,-77.11 1365.81,112.51 1484.08,533.31 159.05,565.9 -571.18,1319.49 -1630.69,1682.84 -157.41,53.99 -313.22,96.23 -465,127.33 -50.57,9.54 -100.78,18 -150.56,25.4l-19.78 65.71c49.26,-8.22 109.15,-17.33 159.11,-27.4z"/>
   </g>
  </g>
 </g>
</svg>
